<svg width="27" height="23" viewBox="0 0 27 23" fill="none" xmlns="http://www.w3.org/2000/svg">
<path d="M6.36417 20.1575H19.7806C20.0626 20.1575 20.2913 19.9289 20.2913 19.6469V8.02533C20.2913 7.7433 20.0626 7.51468 19.7806 7.51468H6.36417C6.08213 7.51468 5.85352 7.7433 5.85352 8.02533V19.6469C5.85352 19.9289 6.08213 20.1575 6.36417 20.1575ZM6.87481 8.53598H19.27V19.1362H6.87481V8.53598Z" fill="#0F7AC2"/>
<path d="M24.5867 1.39898H22.9894V0.51065C22.9894 0.228618 22.7608 0 22.4788 0H19.4997C19.2177 0 18.9891 0.228618 18.9891 0.51065V1.39898H15.0728V0.51065C15.0728 0.228618 14.8442 0 14.5622 0H11.5831C11.3011 0 11.0725 0.228618 11.0725 0.51065V1.39898H7.66689V0.51065C7.66689 0.228618 7.43828 0 7.15624 0H4.17711C3.89508 0 3.66646 0.228618 3.66646 0.51065V1.39898H1.5586C0.699181 1.39898 0 2.09816 0 2.95758V20.9209C0 21.8817 0.782877 22.6635 1.74515 22.6635H24.0654C25.2123 22.6635 26.1453 21.7304 26.1453 20.5836V2.95758C26.1453 2.09816 25.4461 1.39898 24.5867 1.39898ZM20.0104 1.0213H21.9681V2.83569H20.0104V1.0213ZM12.0938 1.0213H14.0515V2.83569H12.0938V1.0213ZM4.68776 1.0213H6.64554V2.83569H4.68776V1.0213ZM1.0213 2.95758C1.0213 2.6613 1.26233 2.42028 1.5586 2.42028H3.66646V3.34629C3.66646 3.62832 3.89508 3.85694 4.17711 3.85694H7.15619C7.43823 3.85694 7.66684 3.62832 7.66684 3.34629V2.42028H11.0724V3.34629C11.0724 3.62832 11.301 3.85694 11.5831 3.85694H14.5621C14.8442 3.85694 15.0728 3.62832 15.0728 3.34629V2.42028H18.989V3.34629C18.989 3.62832 19.2177 3.85694 19.4997 3.85694H22.4788C22.7608 3.85694 22.9894 3.62832 22.9894 3.34629V2.42028H24.5867C24.8829 2.42028 25.124 2.6613 25.124 2.95758V5.10706H1.0213V2.95758ZM25.124 20.5836C25.124 21.1673 24.6491 21.6422 24.0654 21.6422H1.74515C1.34602 21.6422 1.0213 21.3186 1.0213 20.9209V6.12836H25.124V20.5836Z" fill="#0F7AC2"/>
<path d="M16.9663 12.1508L14.7815 11.5067L13.4938 9.62783C13.3986 9.48894 13.241 9.40585 13.0726 9.40585C12.9042 9.40585 12.7466 9.48888 12.6513 9.62783L11.3636 11.5067L9.17876 12.1508C9.01719 12.1984 8.88953 12.3226 8.83749 12.4828C8.78546 12.643 8.81574 12.8185 8.91848 12.952L10.3075 14.7572L10.2449 17.0341C10.2402 17.2025 10.3189 17.3623 10.4552 17.4613C10.5436 17.5255 10.6489 17.5588 10.7554 17.5588C10.8129 17.5588 10.8707 17.5491 10.9265 17.5293L13.0726 16.7662L15.2187 17.5293C15.3773 17.5857 15.5536 17.5603 15.6899 17.4613C15.8262 17.3623 15.9049 17.2025 15.9002 17.0341L15.8376 14.7572L17.2266 12.952C17.3293 12.8185 17.3595 12.6429 17.3075 12.4828C17.2555 12.3226 17.1278 12.1984 16.9663 12.1508ZM14.9174 14.2784C14.8458 14.3715 14.8085 14.4864 14.8117 14.6038L14.8589 16.3174L13.2437 15.7431C13.133 15.7037 13.0122 15.7037 12.9015 15.7431L11.2863 16.3174L11.3334 14.6038C11.3366 14.4864 11.2993 14.3715 11.2276 14.2784L10.1823 12.9197L11.8266 12.435C11.9393 12.4018 12.0371 12.3308 12.1035 12.2338L13.0726 10.8198L14.0416 12.2339C14.1081 12.3308 14.2058 12.4018 14.3185 12.435L15.9628 12.9198L14.9174 14.2784Z" fill="#0F7AC2"/>
<path d="M22.8622 13.7145H23.3992C23.6811 13.7145 23.9098 13.4859 23.9098 13.2038C23.9098 12.9218 23.6811 12.6932 23.3992 12.6932H22.8622C22.5802 12.6932 22.3516 12.9218 22.3516 13.2038C22.3516 13.4859 22.5802 13.7145 22.8622 13.7145Z" fill="#0F7AC2"/>
<path d="M21.5722 10.8219C21.7029 10.8219 21.8336 10.7721 21.9333 10.6723L22.313 10.2926C22.5124 10.0932 22.5124 9.76985 22.313 9.57039C22.1136 9.37099 21.7903 9.37099 21.5908 9.57039L21.2111 9.95006C21.0117 10.1495 21.0117 10.4728 21.2111 10.6723C21.3109 10.7721 21.4415 10.8219 21.5722 10.8219Z" fill="#0F7AC2"/>
<path d="M21.5908 16.8371C21.6906 16.9368 21.8213 16.9866 21.9519 16.9866C22.0827 16.9866 22.2133 16.9368 22.313 16.8371C22.5124 16.6377 22.5124 16.3143 22.313 16.1149L21.9333 15.7352C21.7338 15.5358 21.4105 15.5358 21.2111 15.7353C21.0117 15.9347 21.0117 16.258 21.2111 16.4575L21.5908 16.8371Z" fill="#0F7AC2"/>
<path d="M2.746 13.7145H3.28295C3.56498 13.7145 3.7936 13.4859 3.7936 13.2038C3.7936 12.9218 3.56498 12.6932 3.28295 12.6932H2.746C2.46397 12.6932 2.23535 12.9218 2.23535 13.2038C2.23535 13.4859 2.46397 13.7145 2.746 13.7145Z" fill="#0F7AC2"/>
<path d="M4.21191 15.7353L3.83219 16.1149C3.63278 16.3143 3.63273 16.6377 3.83219 16.8371C3.93192 16.9368 4.0626 16.9867 4.19327 16.9867C4.32395 16.9867 4.45462 16.9368 4.55435 16.8371L4.93407 16.4574C5.13348 16.258 5.13353 15.9347 4.93407 15.7353C4.73471 15.5359 4.41137 15.5359 4.21191 15.7353Z" fill="#0F7AC2"/>
<path d="M4.21194 10.6723C4.31167 10.7721 4.44235 10.8219 4.57302 10.8219C4.7037 10.8219 4.83443 10.7721 4.9341 10.6723C5.13351 10.4729 5.13351 10.1496 4.9341 9.95012L4.55439 9.57045C4.35498 9.37105 4.03163 9.37105 3.83217 9.57045C3.63277 9.76986 3.63277 10.0932 3.83217 10.2927L4.21194 10.6723Z" fill="#0F7AC2"/>
</svg>
