<svg width="22" height="11" viewBox="0 0 22 11" fill="none" xmlns="http://www.w3.org/2000/svg">
<path d="M21.055 3.84587L18.0785 1.99345C15.9832 0.689305 13.5355 0 11 0C8.46454 0 6.01679 0.689305 3.92146 1.99345L0.945012 3.84587C0.353289 4.21416 0 4.83252 0 5.5C0 6.16748 0.353289 6.78584 0.945012 7.15413L3.92146 9.00655C6.01679 10.3107 8.46454 11 11 11C13.5355 11 15.9832 10.3107 18.0785 9.00655L21.055 7.15413C21.6467 6.78584 22 6.16748 22 5.5C22 4.83252 21.6467 4.21416 21.055 3.84587ZM11 8.9375C9.10456 8.9375 7.5625 7.39544 7.5625 5.5C7.5625 3.60456 9.10456 2.0625 11 2.0625C12.8954 2.0625 14.4375 3.60456 14.4375 5.5C14.4375 7.39544 12.8954 8.9375 11 8.9375ZM1.67157 5.98675C1.48311 5.86945 1.375 5.69203 1.375 5.5C1.375 5.30797 1.48311 5.13055 1.67153 5.01325L4.64797 3.16082C5.67875 2.5193 6.80578 2.05223 7.97663 1.7588C6.88609 2.64176 6.1875 3.99072 6.1875 5.5C6.1875 7.00928 6.88609 8.35824 7.97663 9.24125C6.80578 8.94781 5.67875 8.48074 4.64797 7.83922L1.67157 5.98675ZM20.3285 5.98675L17.352 7.83918C16.3213 8.4807 15.1943 8.94777 14.0234 9.2412C15.1139 8.35824 15.8125 7.00928 15.8125 5.5C15.8125 3.99072 15.1139 2.64176 14.0234 1.75875C15.1942 2.05219 16.3213 2.51926 17.352 3.16078L20.3284 5.01321C20.5169 5.13051 20.625 5.30797 20.625 5.5C20.625 5.69203 20.5169 5.86949 20.3285 5.98675Z" fill="white"/>
<path d="M11 6.875C11.7594 6.875 12.375 6.25939 12.375 5.5C12.375 4.74061 11.7594 4.125 11 4.125C10.2406 4.125 9.625 4.74061 9.625 5.5C9.625 6.25939 10.2406 6.875 11 6.875Z" fill="white"/>
</svg>
