<svg width="31" height="27" viewBox="0 0 31 27" fill="none" xmlns="http://www.w3.org/2000/svg">
<path d="M8.26666 18.691H27.9C28.0187 18.691 28.1338 18.6499 28.2259 18.5746C28.3181 18.4994 28.3816 18.3945 28.4058 18.2777L30.9891 5.81705C31.0048 5.74151 31.0035 5.6634 30.9854 5.58842C30.9672 5.51343 30.9327 5.44346 30.8842 5.38358C30.8358 5.32371 30.7746 5.27544 30.7053 5.24229C30.6359 5.20914 30.5601 5.19194 30.4833 5.19194H5.75818L4.63624 0.400234C4.60956 0.286333 4.54537 0.184828 4.45409 0.11218C4.3628 0.0395328 4.24978 2.5752e-06 4.13333 0H0.516666C0.379638 0 0.248222 0.0547008 0.151328 0.152069C0.0544343 0.249436 0 0.381495 0 0.519194C0 0.656893 0.0544343 0.788952 0.151328 0.88632C0.248222 0.983688 0.379638 1.03839 0.516666 1.03839H3.72413L7.63743 17.7514C7.22042 17.8859 6.8566 18.1498 6.59831 18.5053C6.34002 18.8607 6.20056 19.2893 6.2 19.7294V20.7678C6.20061 21.3184 6.41855 21.8462 6.80599 22.2356C7.19343 22.6249 7.71874 22.8439 8.26666 22.8445H8.26808C7.97976 23.2301 7.80403 23.6888 7.76059 24.1691C7.71716 24.6494 7.80775 25.1324 8.0222 25.5639C8.23664 25.9954 8.56647 26.3583 8.97469 26.612C9.38291 26.8656 9.85337 27 10.3333 27C10.8133 27 11.2838 26.8656 11.692 26.612C12.1002 26.3583 12.43 25.9954 12.6445 25.5639C12.8589 25.1324 12.9495 24.6494 12.9061 24.1691C12.8626 23.6888 12.6869 23.2301 12.3986 22.8445H22.7347C22.4464 23.2301 22.2707 23.6888 22.2273 24.1691C22.1838 24.6494 22.2744 25.1324 22.4889 25.5639C22.7033 25.9954 23.0331 26.3583 23.4413 26.612C23.8496 26.8656 24.32 27 24.8 27C25.2799 27 25.7504 26.8656 26.1586 26.612C26.5668 26.3583 26.8967 25.9954 27.1111 25.5639C27.3256 25.1324 27.4162 24.6494 27.3727 24.1691C27.3293 23.6888 27.1536 23.2301 26.8652 22.8445H28.9333C29.0703 22.8445 29.2018 22.7898 29.2987 22.6925C29.3956 22.5951 29.45 22.463 29.45 22.3253C29.45 22.1877 29.3956 22.0556 29.2987 21.9582C29.2018 21.8609 29.0703 21.8062 28.9333 21.8062H8.26666C7.99271 21.8058 7.73006 21.6963 7.53635 21.5017C7.34263 21.307 7.23365 21.0431 7.23333 20.7678V19.7294C7.23365 19.4541 7.34263 19.1902 7.53635 18.9955C7.73006 18.8008 7.99271 18.6913 8.26666 18.691ZM8.67586 17.6526L8.18962 15.5758H11.0397L11.2981 17.6526H8.67599H8.67586ZM19.8697 12.4607L19.7835 14.5374H16.3831L16.2969 12.4607H19.8697ZM16.2539 11.4223L16.1678 9.3455H19.9989L19.9127 11.4223H16.2539ZM15.3489 14.5374H11.9518L11.6935 12.4607H15.2626L15.3489 14.5374ZM15.3919 15.5758L15.478 17.6526H12.3393L12.081 15.5758H15.3919ZM16.4261 15.5758H19.7405L19.6544 17.6526H16.5123L16.4261 15.5758ZM20.7748 15.5758H24.0856L23.8272 17.6526H20.6885L20.7748 15.5758ZM20.8178 14.5374L20.9039 12.4607H24.4731L24.2147 14.5374H20.8178ZM25.5144 12.4607H28.5563L28.126 14.5374H25.2561L25.5144 12.4607ZM25.6436 11.4223L25.9019 9.3455H29.2021L28.7719 11.4223H25.6436ZM24.6022 11.4223H20.9468L21.033 9.3455H24.8604L24.6022 11.4223ZM21.076 8.30711L21.1621 6.23033H25.2479L24.9896 8.30711H21.076ZM20.0417 8.30711H16.1248L16.0386 6.23033H20.128L20.0417 8.30711ZM15.0904 8.30711H11.1767L10.9183 6.23033H15.0041L15.0904 8.30711ZM15.1334 9.3455L15.2196 11.4223H11.5642L11.3058 9.3455H15.1334ZM10.5229 11.4223H7.21693L6.73068 9.3455H10.2646L10.5229 11.4223ZM10.6521 12.4607L10.9104 14.5374H7.94607L7.45982 12.4607H10.6521ZM27.4802 17.6526H24.8686L25.1269 15.5758H27.9104L27.4802 17.6526ZM29.4177 8.30711H26.0311L26.2894 6.23033H29.8479L29.4177 8.30711ZM9.87724 6.23033L10.1356 8.30711H6.48765L6.0014 6.23033H9.87724ZM11.8833 24.4021C11.8833 24.7102 11.7924 25.0113 11.6221 25.2675C11.4518 25.5236 11.2097 25.7233 10.9265 25.8411C10.6433 25.959 10.3316 25.9899 10.0309 25.9298C9.73027 25.8697 9.45408 25.7213 9.23731 25.5035C9.02054 25.2857 8.87292 25.0081 8.81311 24.706C8.7533 24.4039 8.784 24.0907 8.90132 23.8061C9.01863 23.5215 9.2173 23.2782 9.4722 23.107C9.72709 22.9359 10.0268 22.8445 10.3333 22.8445C10.7443 22.845 11.1382 23.0093 11.4288 23.3013C11.7194 23.5933 11.8828 23.9892 11.8833 24.4021ZM26.35 24.4021C26.35 24.7102 26.2591 25.0113 26.0888 25.2675C25.9184 25.5236 25.6764 25.7233 25.3931 25.8411C25.1099 25.959 24.7983 25.9899 24.4976 25.9298C24.1969 25.8697 23.9207 25.7213 23.704 25.5035C23.4872 25.2857 23.3396 25.0081 23.2798 24.706C23.22 24.4039 23.2507 24.0907 23.368 23.8061C23.4853 23.5215 23.684 23.2782 23.9389 23.107C24.1938 22.9359 24.4934 22.8445 24.8 22.8445C25.2109 22.845 25.6049 23.0093 25.8955 23.3013C26.1861 23.5933 26.3495 23.9892 26.35 24.4021Z" fill="#0F7AC2"/>
</svg>
