<svg width="24" height="24" viewBox="0 0 24 24" fill="none" xmlns="http://www.w3.org/2000/svg">
<path d="M19.969 23.2492H4.03149C2.84256 23.2492 1.87524 22.2819 1.87524 21.0929V9.74826C1.87524 9.33407 2.21101 8.99826 2.62524 8.99826C3.03948 8.99826 3.37524 9.33407 3.37524 9.74826V21.0929C3.37524 21.4548 3.66962 21.7492 4.03149 21.7492H19.969C20.3309 21.7492 20.6252 21.4548 20.6252 21.0929V9.74826C20.6252 9.33407 20.961 8.99826 21.3752 8.99826C21.7895 8.99826 22.1252 9.33407 22.1252 9.74826V21.0929C22.1252 22.2819 21.158 23.2492 19.969 23.2492Z" fill="#0F7AC2"/>
<path d="M23.25 12.373C23.058 12.373 22.8661 12.2998 22.7197 12.1533L13.3921 2.82581C12.6245 2.05818 11.3755 2.05818 10.6079 2.82581L1.28033 12.1534C0.987457 12.4463 0.512566 12.4463 0.219691 12.1534C-0.0732305 11.8605 -0.0732305 11.3856 0.219691 11.0927L9.54726 1.76512C10.8997 0.412684 13.1003 0.412684 14.4527 1.76512L23.7803 11.0927C24.0732 11.3856 24.0732 11.8605 23.7803 12.1533C23.6339 12.2998 23.4419 12.373 23.25 12.373Z" fill="#0F7AC2"/>
<path d="M15.0002 23.2492H9.00024C8.58601 23.2492 8.25024 22.9134 8.25024 22.4992V15.843C8.25024 14.5506 9.30165 13.4992 10.594 13.4992H13.4065C14.6988 13.4992 15.7502 14.5506 15.7502 15.843V22.4992C15.7502 22.9134 15.4145 23.2492 15.0002 23.2492ZM9.75024 21.7492H14.2502V15.843C14.2502 15.3777 13.8717 14.9992 13.4065 14.9992H10.594C10.1288 14.9992 9.75024 15.3777 9.75024 15.843V21.7492Z" fill="#0F7AC2"/>
</svg>
