<svg width="18" height="18" viewBox="0 0 18 18" fill="none" xmlns="http://www.w3.org/2000/svg">
<path d="M17.25 9.73444H0.75C0.335999 9.73444 0 9.39844 0 8.98444C0 8.57043 0.335999 8.23444 0.75 8.23444H17.25C17.664 8.23444 18 8.57043 18 8.98444C18 9.39844 17.664 9.73444 17.25 9.73444Z" fill="white"/>
<path d="M17.25 3.98438H0.75C0.335999 3.98438 0 3.64838 0 3.23438C0 2.82037 0.335999 2.48438 0.75 2.48438H17.25C17.664 2.48438 18 2.82037 18 3.23438C18 3.64838 17.664 3.98438 17.25 3.98438Z" fill="white"/>
<path d="M17.25 15.4843H0.75C0.335999 15.4843 0 15.1483 0 14.7343C0 14.3203 0.335999 13.9843 0.75 13.9843H17.25C17.664 13.9843 18 14.3203 18 14.7343C18 15.1483 17.664 15.4843 17.25 15.4843Z" fill="white"/>
</svg>
