<svg width="16" height="16" viewBox="0 0 16 16" fill="none" xmlns="http://www.w3.org/2000/svg">
<path d="M14.6193 13.4953L13.474 11.5873C12.946 10.7067 12.6666 9.69869 12.6666 8.67134V7C12.6666 4.42734 10.5726 2.33334 7.99997 2.33334C5.42731 2.33334 3.33331 4.42734 3.33331 7V8.67134C3.33331 9.69869 3.05397 10.7067 2.52597 11.5873L1.38062 13.4953C1.31862 13.598 1.31728 13.7267 1.37597 13.8307C1.43531 13.9353 1.54662 14 1.66662 14H14.3333C14.4533 14 14.5646 13.9354 14.6239 13.8307C14.6826 13.7267 14.6813 13.598 14.6193 13.4953ZM2.25531 13.3333L3.09731 11.93C3.68797 10.946 3.99997 9.81934 3.99997 8.67134V7C3.99997 4.794 5.79397 3 7.99997 3C10.206 3 12 4.794 12 7V8.67134C12 9.81934 12.312 10.946 12.902 11.93L13.7446 13.3333H2.25531Z" fill="white"/>
<path d="M8.00009 0C7.26475 0 6.66675 0.598 6.66675 1.33334V2.66669C6.66675 2.85066 6.81609 3 7.00009 3C7.18409 3 7.33344 2.85066 7.33344 2.66666V1.33334C7.33344 0.965344 7.63209 0.666687 8.00009 0.666687C8.36809 0.666687 8.66675 0.965344 8.66675 1.33334V2.66669C8.66675 2.85066 8.81609 3 9.00009 3C9.18409 3 9.33344 2.85066 9.33344 2.66666V1.33334C9.33344 0.598 8.73544 0 8.00009 0Z" fill="white"/>
<path d="M9.44259 13.498C9.34859 13.3393 9.14525 13.2873 8.98594 13.3787C8.82659 13.472 8.77328 13.6767 8.86659 13.8353C8.95325 13.9827 9.00059 14.1593 9.00059 14.3333C9.00059 14.8847 8.55194 15.3333 8.00059 15.3333C7.44925 15.3333 7.0006 14.8847 7.0006 14.3333C7.0006 14.1593 7.04794 13.9827 7.1346 13.8353C7.22725 13.676 7.17394 13.472 7.01525 13.3787C6.8546 13.2873 6.65191 13.3393 6.5586 13.498C6.41125 13.75 6.33325 14.0387 6.33325 14.3333C6.33328 15.2527 7.0806 16 7.99994 16C8.91928 16 9.66659 15.2527 9.66794 14.3333C9.66794 14.0387 9.58994 13.75 9.44259 13.498Z" fill="white"/>
</svg>
