<svg width="14" height="14" viewBox="0 0 14 14" fill="none" xmlns="http://www.w3.org/2000/svg">
<path d="M6.1653 0C2.76585 0 0 2.76585 0 6.1653C0 9.56495 2.76585 12.3306 6.1653 12.3306C9.56495 12.3306 12.3306 9.56495 12.3306 6.1653C12.3306 2.76585 9.56495 0 6.1653 0ZM6.1653 11.1924C3.39339 11.1924 1.13821 8.93725 1.13821 6.16533C1.13821 3.39341 3.39339 1.13821 6.1653 1.13821C8.93722 1.13821 11.1924 3.39339 11.1924 6.1653C11.1924 8.93722 8.93722 11.1924 6.1653 11.1924Z" fill="white"/>
<path d="M13.8335 13.0285L10.5706 9.76566C10.3483 9.54332 9.9882 9.54332 9.76587 9.76566C9.54354 9.9878 9.54354 10.3482 9.76587 10.5704L13.0287 13.8333C13.1399 13.9444 13.2854 14 13.4311 14C13.5766 14 13.7223 13.9444 13.8335 13.8333C14.0558 13.6111 14.0558 13.2507 13.8335 13.0285Z" fill="white"/>
</svg>
